<svg width="50" height="50" viewBox="0 0 50 50" fill="none" xmlns="http://www.w3.org/2000/svg">
<path d="M26.5714 11.5686C26.5714 11.9292 26.5437 12.2826 26.4904 12.6267C24.8542 11.2095 22.6703 10.3524 20.2857 10.3524C17.9011 10.3524 15.7172 11.2095 14.081 12.6267C14.0277 12.2826 14 11.9292 14 11.5686C14 7.90462 16.8498 5 20.2857 5C23.7217 5 26.5714 7.90462 26.5714 11.5686ZM23.4286 20.4314C23.4286 20.0708 23.4563 19.7174 23.5096 19.3733C25.1458 20.7905 27.3297 21.6476 29.7143 21.6476C32.0989 21.6476 34.2828 20.7905 35.919 19.3733C35.9723 19.7174 36 20.0708 36 20.4314C36 24.0954 33.1502 27 29.7143 27C26.2783 27 23.4286 24.0954 23.4286 20.4314ZM29.307 17.7184C28.9479 17.7191 28.596 17.6913 28.2534 17.6375C29.6647 15.9823 30.5143 13.7724 30.5099 11.3639C30.5056 8.95531 29.6481 6.74855 28.2309 5.0985C28.5733 5.04337 28.9252 5.01436 29.2843 5.0137C32.893 5.00711 35.7894 7.8645 35.7956 11.3541C35.8019 14.8438 32.9157 17.7118 29.307 17.7184ZM21.5555 26.7198C21.2128 26.7736 20.8609 26.8014 20.5018 26.8007C16.8931 26.7941 14.0069 23.9261 14.0132 20.4365C14.0194 16.9468 16.9159 14.0894 20.5245 14.096C20.8837 14.0967 21.2355 14.1257 21.578 14.1808C20.1607 15.8309 19.3032 18.0376 19.2989 20.4462C19.2946 22.8547 20.1442 25.0646 21.5555 26.7198Z" fill="#9E9283" stroke="#9E9283" stroke-width="2"/>
<path d="M12.5907 36.0358C12.6524 36.1791 12.7795 36.2507 12.972 36.2507C13.1899 36.2507 13.3642 36.1432 13.4949 35.9284C13.5857 35.7816 13.6311 35.5953 13.6311 35.3697C13.6311 35.0367 13.5421 34.7932 13.3642 34.6392C13.2298 34.5246 13.0591 34.4673 12.8521 34.4673C12.8049 34.4673 12.7559 34.4709 12.7051 34.4781L12.3401 34.5318V37.6849C12.3401 37.7816 12.3746 37.8621 12.4436 37.9266C12.5126 37.991 12.5943 38.0233 12.6887 38.0233H12.7595V38.077H11.1035V38.0233H11.1743C11.2687 38.0233 11.3486 37.991 11.414 37.9266C11.483 37.8621 11.5193 37.7816 11.523 37.6849V34.8218C11.5193 34.7287 11.4903 34.6553 11.4358 34.6016C11.385 34.5479 11.3087 34.521 11.207 34.521C11.1816 34.521 11.1489 34.5228 11.1089 34.5264L11.0981 34.4781C11.4067 34.453 11.73 34.4118 12.0677 34.3545C12.4091 34.2936 12.6324 34.256 12.7377 34.2417C12.8467 34.2274 12.9556 34.2202 13.0646 34.2202C13.1772 34.2202 13.3115 34.2328 13.4677 34.2578C13.6239 34.2793 13.7837 34.3312 13.9471 34.4136C14.1105 34.4924 14.2431 34.6106 14.3447 34.7681C14.4501 34.94 14.5027 35.1352 14.5027 35.3536C14.5027 35.5685 14.4628 35.7583 14.3829 35.923C14.2303 36.2381 13.9689 36.4387 13.5984 36.5246C13.5076 36.5461 13.4205 36.5568 13.337 36.5568C13.2571 36.5568 13.1808 36.5497 13.1082 36.5354C12.9593 36.5139 12.834 36.4637 12.7323 36.385C12.6306 36.3062 12.5671 36.197 12.5416 36.0573L12.5907 36.0358Z" fill="#413A32"/>
<path d="M16.5823 35.6759C16.5169 35.5398 16.4842 35.4109 16.4842 35.2892C16.4842 35.1638 16.5006 35.0492 16.5333 34.9454C16.5659 34.838 16.6204 34.7341 16.6967 34.6338C16.7729 34.53 16.8801 34.444 17.0181 34.376C17.2069 34.2793 17.4339 34.231 17.699 34.231C18.0477 34.231 18.3781 34.3187 18.6905 34.4942C19.1008 34.7234 19.3859 35.0403 19.5457 35.4449C19.6365 35.667 19.6819 35.9051 19.6819 36.1594C19.6819 36.7574 19.4622 37.239 19.0228 37.6043C18.587 37.9696 18.0168 38.1522 17.3122 38.1522C16.6113 38.1522 16.0394 37.9696 15.5963 37.6043C15.1569 37.239 14.9372 36.7592 14.9372 36.1647C14.9372 35.7207 15.0643 35.3357 15.3185 35.0098C15.5763 34.6804 15.9231 34.4566 16.3589 34.3384L16.3916 34.3868C16.2064 34.5407 16.0666 34.7663 15.9722 35.0636C15.8777 35.3608 15.8305 35.6813 15.8305 36.0251C15.8305 36.6052 15.9667 37.0671 16.2391 37.4109C16.5115 37.7547 16.8674 37.9266 17.3068 37.9266C17.7499 37.9266 18.1058 37.7654 18.3745 37.4432C18.6469 37.1173 18.7831 36.6876 18.7831 36.154C18.7831 35.8317 18.7322 35.5416 18.6305 35.2838C18.5325 35.0224 18.389 34.8218 18.2002 34.6822C18.0113 34.5389 17.8007 34.4673 17.5683 34.4673C17.3104 34.4673 17.1016 34.5336 16.9418 34.6661C16.7167 34.8559 16.6041 35.0976 16.6041 35.3912C16.6041 35.4843 16.6168 35.5792 16.6422 35.6759H16.5823Z" fill="#413A32"/>
<path d="M19.7871 35.5685C19.6091 35.4002 19.5202 35.2193 19.5202 35.026C19.5202 34.8756 19.5692 34.7449 19.6673 34.6338C19.8525 34.419 20.1121 34.3115 20.4462 34.3115H23.012C23.1718 34.308 23.3116 34.2954 23.4314 34.2739C23.5513 34.2489 23.6276 34.2292 23.6602 34.2149V35.1495H23.6058V35.085C23.6058 34.9239 23.5567 34.7932 23.4587 34.6929C23.3606 34.5927 23.2281 34.5407 23.061 34.5372H22.3256V37.6902C22.3329 37.8192 22.3928 37.9158 22.5054 37.9803C22.5562 38.009 22.6125 38.0233 22.6743 38.0233H22.7451V38.077H21.089V38.0233H21.1599C21.2543 38.0233 21.3342 37.991 21.3995 37.9266C21.4685 37.8621 21.5049 37.7851 21.5085 37.6956V34.5372H20.4462C20.2973 34.5372 20.1666 34.564 20.054 34.6177C19.8252 34.7252 19.7108 34.8935 19.7108 35.1227C19.7108 35.2587 19.7544 35.3984 19.8416 35.5416L19.7871 35.5685Z" fill="#413A32"/>
<path d="M23.8567 35.5685C23.6788 35.4002 23.5898 35.2193 23.5898 35.026C23.5898 34.8756 23.6388 34.7449 23.7369 34.6338C23.9221 34.419 24.1818 34.3115 24.5159 34.3115H27.0816C27.2414 34.308 27.3812 34.2954 27.5011 34.2739C27.6209 34.2489 27.6972 34.2292 27.7299 34.2149V35.1495H27.6754V35.085C27.6754 34.9239 27.6264 34.7932 27.5283 34.6929C27.4303 34.5927 27.2977 34.5407 27.1307 34.5372H26.3953V37.6902C26.4025 37.8192 26.4624 37.9158 26.575 37.9803C26.6259 38.009 26.6822 38.0233 26.7439 38.0233H26.8147V38.077H25.1587V38.0233H25.2295C25.3239 38.0233 25.4038 37.991 25.4692 37.9266C25.5382 37.8621 25.5745 37.7851 25.5781 37.6956V34.5372H24.5159C24.367 34.5372 24.2362 34.564 24.1237 34.6177C23.8949 34.7252 23.7805 34.8935 23.7805 35.1227C23.7805 35.2587 23.8241 35.3984 23.9112 35.5416L23.8567 35.5685Z" fill="#413A32"/>
<path d="M28.0962 38.0233C28.1906 38.0233 28.2705 37.991 28.3359 37.9266C28.4049 37.8586 28.4412 37.778 28.4448 37.6849V34.6929C28.4339 34.5676 28.374 34.4745 28.2651 34.4136C28.2106 34.385 28.1543 34.3706 28.0962 34.3706H28.0254V34.3169H29.5561C29.7159 34.3169 29.8557 34.3044 29.9756 34.2793C30.0954 34.2543 30.1735 34.2346 30.2098 34.2202V35.1603H30.1499V35.0958C30.1535 34.9346 30.1063 34.8057 30.0082 34.709C29.9138 34.6088 29.7849 34.5551 29.6215 34.5479H29.2619V36.111H30.1281C30.2625 36.1074 30.3732 36.0627 30.4604 35.9767C30.5475 35.8872 30.5911 35.778 30.5911 35.6491V35.6007H30.6401V36.8415H30.5911V36.7986C30.5911 36.6661 30.5475 36.5568 30.4604 36.4709C30.3732 36.385 30.2643 36.3402 30.1335 36.3366H29.2619V37.846H30.3242C30.5893 37.846 30.8108 37.7708 30.9888 37.6204C31.1704 37.47 31.3047 37.2569 31.3919 36.9812H31.4464L31.1903 38.077H28.0254V38.0233H28.0962Z" fill="#413A32"/>
<path d="M37.3352 38.9902C37.0519 39.1298 36.7505 39.1996 36.4309 39.1996C36.1476 39.1996 35.8898 39.1567 35.6573 39.0707C35.1562 38.8881 34.7295 38.5318 34.3772 38.0018C34.2864 37.8729 34.1175 37.6258 33.8706 37.2605C33.6236 36.8953 33.4638 36.6625 33.3912 36.5622C33.2641 36.3653 33.1624 36.2578 33.0861 36.2399V36.1862C33.0898 36.1862 33.0934 36.1862 33.097 36.1862C33.1043 36.1862 33.1116 36.1862 33.1188 36.1862C33.1261 36.1862 33.1334 36.1862 33.1406 36.1862C33.1479 36.1862 33.157 36.1862 33.1679 36.1862C33.1787 36.1862 33.1878 36.1862 33.1951 36.1862C33.3803 36.1862 33.551 36.145 33.7072 36.0627C33.9432 35.9338 34.0612 35.6956 34.0612 35.3483C34.0612 35.094 33.9886 34.8988 33.8433 34.7628C33.6981 34.6231 33.5238 34.5533 33.3204 34.5533H32.9064V37.6849C32.9064 37.778 32.9409 37.8586 33.0099 37.9266C33.0789 37.991 33.1606 38.0233 33.255 38.0233H33.3258V38.077H31.6698V38.0233H31.7406C31.8314 38.0233 31.9113 37.991 31.9803 37.9266C32.0493 37.8621 32.0856 37.7833 32.0893 37.6902V34.709C32.0856 34.6159 32.0493 34.5372 31.9803 34.4727C31.9149 34.4047 31.835 34.3706 31.7406 34.3706H31.6698V34.3169H33.5383C34.0068 34.3169 34.3699 34.4226 34.6278 34.6338C34.8311 34.7986 34.9328 35.0313 34.9328 35.3321C34.9328 35.6329 34.833 35.8782 34.6332 36.068C34.4371 36.2543 34.212 36.3474 33.9577 36.3474C33.9359 36.3474 33.9123 36.3456 33.8869 36.342C34.0358 36.4208 34.1593 36.5085 34.2573 36.6052C34.359 36.7019 34.4462 36.7932 34.5188 36.8791C34.5951 36.9651 34.6586 37.0421 34.7095 37.1101C34.764 37.1746 34.8348 37.2623 34.9219 37.3733C35.0091 37.4808 35.0999 37.5936 35.1943 37.7117C35.2887 37.8299 35.3922 37.9517 35.5048 38.077C35.621 38.1987 35.7481 38.3151 35.8861 38.4261C36.0278 38.5372 36.1712 38.6285 36.3165 38.7001C36.6252 38.8541 36.9647 38.9329 37.3352 38.9364V38.9902Z" fill="#413A32"/>
<path d="M34.7782 34.0054C34.8363 34.0018 34.9289 34 35.056 34C35.1795 34 35.3429 34.0269 35.5463 34.0806C35.7533 34.1307 35.944 34.2113 36.1183 34.3223C36.2926 34.4333 36.4524 34.5676 36.5977 34.7252C36.8664 35.0188 37.077 35.3715 37.2296 35.7833C37.4475 35.171 37.7307 34.7019 38.0794 34.376C38.3445 34.1289 38.6368 34.0054 38.9564 34.0054C38.9709 34.0054 38.9855 34.0054 39 34.0054V34.0591C38.8184 34.0627 38.6296 34.1576 38.4335 34.3438C38.241 34.5264 38.0721 34.7484 37.9268 35.0098C37.7816 35.2713 37.6581 35.5434 37.5564 35.8263C37.4584 36.1092 37.4003 36.3545 37.3821 36.5622V37.6849C37.3821 37.7744 37.4148 37.8532 37.4802 37.9212C37.5492 37.9893 37.6327 38.0233 37.7307 38.0233H37.8016V38.077H36.1455V38.0233H36.2163C36.3108 38.0233 36.3907 37.991 36.456 37.9266C36.525 37.8586 36.5614 37.778 36.565 37.6849V36.5568C36.5214 36.1701 36.3907 35.7601 36.1728 35.3268C35.9222 34.8254 35.6407 34.4691 35.3284 34.2578C35.1468 34.1325 34.9634 34.0662 34.7782 34.0591V34.0054Z" fill="#413A32"/>
<path d="M11.3704 43.9373C11.2252 44.1665 11.1525 44.4011 11.1525 44.641C11.1525 44.9024 11.2488 45.1406 11.4412 45.3554C11.5466 45.4772 11.6791 45.5721 11.8389 45.6401C12.0023 45.7081 12.1803 45.7422 12.3728 45.7422C12.5652 45.7422 12.7377 45.7064 12.8903 45.6347C13.1953 45.4879 13.3479 45.248 13.3479 44.915C13.3479 44.7896 13.3043 44.6571 13.2171 44.5175C13.1336 44.3778 13.0065 44.2525 12.8358 44.1415L11.9097 43.5291C11.5502 43.3071 11.3704 43.0206 11.3704 42.6697C11.3704 42.6338 11.3722 42.598 11.3759 42.5622C11.3977 42.2865 11.5084 42.0627 11.7082 41.8908C11.9115 41.7153 12.1821 41.6276 12.5198 41.6276C12.7268 41.6276 12.9774 41.6455 13.2716 41.6813H13.6093L13.5385 42.4709H13.4895C13.4859 42.2847 13.4132 42.1361 13.2716 42.0251C13.13 41.9105 12.9429 41.8532 12.7105 41.8532C12.4272 41.8532 12.222 41.9373 12.0949 42.1056C12.0332 42.1916 12.0023 42.2847 12.0023 42.385C12.0023 42.4852 12.0332 42.5712 12.0949 42.6428C12.1567 42.7108 12.2547 42.786 12.3891 42.8684L13.4078 43.5237C13.6148 43.6562 13.7764 43.812 13.8926 43.991C14.0306 44.2023 14.0996 44.419 14.0996 44.641C14.0996 44.7842 14.0687 44.9364 14.007 45.0976C13.9489 45.2551 13.8508 45.402 13.7128 45.538C13.5785 45.6741 13.4041 45.7851 13.1899 45.8711C12.9756 45.957 12.7377 46 12.4763 46C12.2184 46 11.9842 45.9552 11.7735 45.8657C11.385 45.7046 11.138 45.4235 11.0327 45.0224C11.0109 44.9364 11 44.8469 11 44.7538C11 44.453 11.1071 44.1683 11.3214 43.8997L11.3704 43.9373Z" fill="#413A32"/>
<path d="M14.1162 42.9543C13.9383 42.786 13.8493 42.6052 13.8493 42.4118C13.8493 42.2614 13.8983 42.1307 13.9964 42.0197C14.1816 41.8048 14.4412 41.6974 14.7753 41.6974H17.3411C17.5009 41.6938 17.6407 41.6813 17.7606 41.6598C17.8804 41.6347 17.9567 41.615 17.9893 41.6007V42.5354H17.9349V42.4709C17.9349 42.3098 17.8858 42.1791 17.7878 42.0788C17.6897 41.9785 17.5572 41.9266 17.3901 41.923H16.6547V45.0761C16.662 45.205 16.7219 45.3017 16.8345 45.3662C16.8853 45.3948 16.9416 45.4091 17.0034 45.4091H17.0742V45.4628H15.4181V45.4091H15.489C15.5834 45.4091 15.6633 45.3769 15.7287 45.3124C15.7977 45.248 15.834 45.171 15.8376 45.0815V41.923H14.7753C14.6264 41.923 14.4957 41.9499 14.3831 42.0036C14.1543 42.111 14.0399 42.2793 14.0399 42.5085C14.0399 42.6446 14.0835 42.7842 14.1707 42.9275L14.1162 42.9543Z" fill="#413A32"/>
<path d="M23.0132 40.6124C23.0604 40.6124 23.1095 40.6141 23.1603 40.6177V40.6714C22.7318 40.7037 22.4231 40.9042 22.2342 41.2731C22.1108 41.513 22.049 41.8174 22.049 42.1862V44.1039C22.0418 44.5551 21.8947 44.9078 21.6078 45.162C21.3209 45.4127 20.9105 45.538 20.3767 45.538C19.8464 45.538 19.4234 45.4091 19.1074 45.1513C18.7914 44.8899 18.6353 44.5425 18.6389 44.1092V42.0197C18.6389 41.9445 18.6099 41.8818 18.5518 41.8317C18.4973 41.7816 18.4301 41.7565 18.3502 41.7565H18.263V41.7028H19.8319V41.7565H19.7448C19.6322 41.7565 19.5486 41.7995 19.4942 41.8854C19.4687 41.9248 19.456 41.9678 19.456 42.0143V44.0662C19.456 44.4458 19.5559 44.7466 19.7556 44.9687C19.9554 45.1907 20.2187 45.3017 20.5455 45.3017C20.5492 45.3017 20.551 45.3017 20.551 45.3017C20.551 45.3017 20.5528 45.3017 20.5564 45.3017C20.8796 45.3017 21.1447 45.1979 21.3518 44.9902C21.5588 44.7825 21.6623 44.4978 21.6623 44.1361V42.1862C21.6623 41.7028 21.7912 41.3196 22.049 41.0367C22.3105 40.7538 22.6319 40.6124 23.0132 40.6124Z" fill="#413A32"/>
<path d="M23.6736 41.6974C23.7353 41.6974 23.8479 41.6974 24.0113 41.6974C24.1747 41.6974 24.478 41.6992 24.921 41.7028C25.5638 41.7099 26.0723 41.8818 26.4463 42.2184C26.8204 42.5515 27.0074 43.0081 27.0074 43.5882C27.0074 44.1647 26.8204 44.6213 26.4463 44.9579C26.0723 45.2945 25.5638 45.4628 24.921 45.4628H22.9436V45.4091H23.0144C23.1052 45.4091 23.1833 45.3787 23.2487 45.3178C23.3177 45.2534 23.3558 45.1764 23.3631 45.0868V41.9445C22.9563 41.9731 22.6549 42.0662 22.4588 42.2238C22.3607 42.299 22.2845 42.376 22.23 42.4548C22.1719 42.5336 22.1156 42.6285 22.0611 42.7395L22.0066 42.718C22.0938 42.3599 22.2754 42.1021 22.5514 41.9445C22.831 41.7833 23.2051 41.701 23.6736 41.6974ZM24.8557 45.2372C25.2442 45.2372 25.5511 45.0886 25.7763 44.7914C26.0051 44.4942 26.1195 44.0913 26.1195 43.5828C26.1195 43.0743 26.0051 42.6732 25.7763 42.3796C25.5511 42.0859 25.2479 41.9391 24.8666 41.9391C24.8629 41.9391 24.8593 41.9391 24.8557 41.9391H24.1802V45.2372H24.8557Z" fill="#413A32"/>
<path d="M29.4441 45.4091H29.5149V45.4628H27.8589V45.4091H27.9297C28.0241 45.4091 28.104 45.3769 28.1694 45.3124C28.2384 45.2444 28.2747 45.1638 28.2783 45.0707V41.923L27.7608 41.9445C27.4194 41.9588 27.2488 42.0842 27.2488 42.3205C27.2488 42.4172 27.2814 42.4996 27.3468 42.5676C27.4158 42.6321 27.5102 42.6643 27.6301 42.6643C27.641 42.6643 27.6519 42.6643 27.6628 42.6643V42.6965C27.5901 42.7216 27.5284 42.7341 27.4776 42.7341C27.3141 42.7341 27.1888 42.6768 27.1017 42.5622C27.0399 42.4834 27.0091 42.3939 27.0091 42.2936C27.0091 42.1361 27.0726 42.0072 27.1997 41.9069C27.3232 41.803 27.5157 41.7422 27.7772 41.7243C27.8244 41.7207 27.9769 41.7135 28.2347 41.7028C28.8231 41.6813 29.2498 41.6455 29.5149 41.5953L29.5258 41.6491C29.3696 41.6741 29.2589 41.7261 29.1935 41.8048C29.1318 41.8836 29.0991 42 29.0954 42.154V45.0707C29.0991 45.1638 29.1336 45.2444 29.1989 45.3124C29.268 45.3769 29.3497 45.4091 29.4441 45.4091Z" fill="#413A32"/>
<path d="M31.4298 43.0618C31.3644 42.9257 31.3318 42.7968 31.3318 42.675C31.3318 42.5497 31.3481 42.4351 31.3808 42.3312C31.4135 42.2238 31.4679 42.12 31.5442 42.0197C31.6205 41.9158 31.7276 41.8299 31.8656 41.7619C32.0545 41.6652 32.2814 41.6168 32.5465 41.6168C32.8952 41.6168 33.2257 41.7046 33.538 41.88C33.9484 42.1092 34.2334 42.4261 34.3932 42.8308C34.484 43.0528 34.5294 43.291 34.5294 43.5452C34.5294 44.1432 34.3097 44.6249 33.8703 44.9902C33.4345 45.3554 32.8643 45.538 32.1598 45.538C31.4589 45.538 30.8869 45.3554 30.4438 44.9902C30.0044 44.6249 29.7847 44.145 29.7847 43.5506C29.7847 43.1065 29.9118 42.7216 30.166 42.3957C30.4238 42.0662 30.7707 41.8424 31.2065 41.7243L31.2392 41.7726C31.0539 41.9266 30.9141 42.1522 30.8197 42.4494C30.7253 42.7466 30.6781 43.0671 30.6781 43.4109C30.6781 43.991 30.8143 44.453 31.0866 44.7968C31.359 45.1406 31.7149 45.3124 32.1543 45.3124C32.5974 45.3124 32.9533 45.1513 33.222 44.829C33.4944 44.5031 33.6306 44.0734 33.6306 43.5398C33.6306 43.2175 33.5797 42.9275 33.4781 42.6697C33.38 42.4082 33.2366 42.2077 33.0477 42.068C32.8589 41.9248 32.6482 41.8532 32.4158 41.8532C32.158 41.8532 31.9491 41.9194 31.7893 42.0519C31.5642 42.2417 31.4516 42.4834 31.4516 42.7771C31.4516 42.8702 31.4643 42.9651 31.4897 43.0618H31.4298Z" fill="#413A32"/>
</svg>
