<svg width="36" height="36" viewBox="0 0 36 36" fill="none" xmlns="http://www.w3.org/2000/svg">
<path fill-rule="evenodd" clip-rule="evenodd" d="M21.4464 17.1504C21.4464 19.9839 19.119 22.3009 16.2232 22.3009C13.3274 22.3009 11 19.9839 11 17.1504C11 14.317 13.3274 12 16.2232 12C19.119 12 21.4464 14.317 21.4464 17.1504ZM20.7988 21.3193C19.6617 22.5377 18.0326 23.3009 16.2232 23.3009C12.7862 23.3009 10 20.5472 10 17.1504C10 13.7536 12.7862 11 16.2232 11C19.6602 11 22.4464 13.7536 22.4464 17.1504C22.4464 18.4011 22.0687 19.5646 21.4199 20.5355L25.9985 24.2213L25.3715 25.0003L20.7988 21.3193Z" fill="black"/>
</svg>
