<svg width="34" height="33" viewBox="0 0 34 33" fill="none" xmlns="http://www.w3.org/2000/svg">
<path d="M32.7354 20.3701C32.9063 21.0823 33 21.8261 33 22.5928C33 27.7958 28.819 31.9999 23.6787 32C18.5384 32 14.3574 27.7958 14.3574 22.5928C14.3575 21.8264 14.4503 21.083 14.6211 20.3711C16.9129 22.5498 20.1341 23.8906 23.6787 23.8906C27.2234 23.8906 30.4436 22.5488 32.7354 20.3701ZM10.6602 13.5068C11.4375 13.5082 12.192 13.5993 12.9141 13.7646C10.7932 15.9198 9.44989 18.9124 9.34668 22.2266L9.33984 22.6143C9.33347 26.0819 10.6863 29.229 12.8809 31.4756C12.1583 31.6383 11.4042 31.727 10.627 31.7256L10.127 31.7129C5.16712 31.4652 1.26866 27.6845 1.03027 23.0645L1.01855 22.5996C1.02748 17.7706 5.03473 13.7561 10.1611 13.5186L10.6602 13.5068ZM23.0684 1.01855C28.2639 1.00934 32.4333 4.87317 32.6973 9.64648L32.7109 10.1113C32.7201 15.096 28.4656 19.2277 23.1025 19.2373L22.5898 19.2256C21.9921 19.197 21.4099 19.1143 20.8467 18.9873C22.9596 16.8247 24.2928 13.8282 24.3838 10.5137L24.3887 10.126C24.3823 6.65752 23.0172 3.51523 20.8135 1.27637C21.3761 1.14744 21.9581 1.06295 22.5557 1.03223L23.0684 1.01855ZM10.3213 1C15.4616 1 19.6426 5.20419 19.6426 10.4072C19.6425 11.1733 19.5486 11.9163 19.3779 12.6279C17.0862 10.4498 13.8654 9.10938 10.3213 9.10938C6.77663 9.10941 3.55544 10.4502 1.26367 12.6289C1.09286 11.917 1.00003 11.1735 1 10.4072C1 5.20424 5.18102 1.00008 10.3213 1Z" fill="#9E9283" stroke="#9E9283" stroke-width="2"/>
</svg>
