<svg width="46" height="20" viewBox="0 0 46 20" fill="none" xmlns="http://www.w3.org/2000/svg">
<path d="M2.61323 3.39302C2.71465 3.63175 2.92347 3.75112 3.23968 3.75112C3.59766 3.75112 3.88404 3.57207 4.09883 3.21397C4.24798 2.96926 4.32256 2.65891 4.32256 2.2829C4.32256 1.72784 4.17639 1.32199 3.88404 1.06535C3.66329 0.874366 3.38287 0.778872 3.0428 0.778872C2.96524 0.778872 2.88469 0.784841 2.80116 0.796778L2.20155 0.886303V6.14145C2.20155 6.3026 2.25823 6.43689 2.37159 6.54432C2.48495 6.65175 2.61919 6.70546 2.77432 6.70546H2.89066V6.79499H0.170039V6.70546H0.286381C0.441504 6.70546 0.572762 6.65175 0.680155 6.54432C0.793514 6.43689 0.853176 6.3026 0.859143 6.14145V1.36974C0.853176 1.21456 0.805446 1.09221 0.715952 1.00269C0.632425 0.91316 0.507133 0.868398 0.340077 0.868398C0.298313 0.868398 0.244617 0.871382 0.178988 0.877351L0.161089 0.796778C0.668222 0.754999 1.19922 0.686363 1.75408 0.590869C2.31491 0.489406 2.68184 0.426739 2.85486 0.402865C3.03385 0.378991 3.21284 0.367055 3.39182 0.367055C3.57678 0.367055 3.79753 0.387944 4.05408 0.429723C4.31063 0.465533 4.57314 0.552074 4.84163 0.689347C5.11011 0.820651 5.32788 1.01761 5.49493 1.28022C5.66796 1.5667 5.75447 1.89197 5.75447 2.25604C5.75447 2.61415 5.68884 2.93047 5.55758 3.20501C5.307 3.73023 4.87743 4.06446 4.26887 4.2077C4.11971 4.24351 3.97652 4.26142 3.83929 4.26142C3.70804 4.26142 3.58274 4.24948 3.46342 4.22561C3.2188 4.18979 3.01297 4.10624 2.84591 3.97493C2.67885 3.84363 2.57445 3.66159 2.53268 3.42883L2.61323 3.39302Z" fill="#413A32"/>
<path d="M9.1709 2.7932C9.06351 2.5664 9.00981 2.35154 9.00981 2.14861C9.00981 1.93972 9.03666 1.74873 9.09036 1.57565C9.14405 1.3966 9.23355 1.22352 9.35884 1.0564C9.48413 0.883319 9.66014 0.740078 9.88685 0.626679C10.1971 0.465533 10.57 0.38496 11.0055 0.38496C11.5783 0.38496 12.1212 0.531185 12.6343 0.823635C13.3085 1.20561 13.7769 1.73381 14.0394 2.40824C14.1885 2.77828 14.2631 3.17517 14.2631 3.59893C14.2631 4.59564 13.9022 5.39839 13.1802 6.00716C12.4643 6.61594 11.5276 6.92032 10.3701 6.92032C9.21863 6.92032 8.27894 6.61594 7.55106 6.00716C6.82914 5.39839 6.46818 4.59863 6.46818 3.60788C6.46818 2.8678 6.677 2.2262 7.09464 1.68308C7.51824 1.13399 8.08802 0.760967 8.80398 0.564011L8.85767 0.644584C8.55339 0.901224 8.32369 1.27723 8.16857 1.77261C8.01344 2.26798 7.93588 2.80215 7.93588 3.37511C7.93588 4.34199 8.15962 5.11191 8.60709 5.68487C9.05456 6.25783 9.63925 6.54432 10.3612 6.54432C11.0891 6.54432 11.6738 6.27574 12.1153 5.73859C12.5627 5.19546 12.7865 4.47926 12.7865 3.58997C12.7865 3.05282 12.7029 2.56938 12.5359 2.13966C12.3748 1.70397 12.1391 1.36974 11.8289 1.13697C11.5186 0.898239 11.1726 0.778872 10.7907 0.778872C10.3671 0.778872 10.0241 0.889287 9.76156 1.11012C9.39165 1.42644 9.2067 1.82931 9.2067 2.31871C9.2067 2.47389 9.22758 2.63205 9.26934 2.7932H9.1709Z" fill="#413A32"/>
<path d="M14.4359 2.61415C14.1436 2.33363 13.9974 2.03223 13.9974 1.70994C13.9974 1.45927 14.078 1.24142 14.2391 1.0564C14.5433 0.698299 14.9699 0.519248 15.5188 0.519248H19.734C19.9965 0.51328 20.2262 0.492391 20.4231 0.456581C20.62 0.414802 20.7453 0.381976 20.799 0.358102V1.91585H20.7095V1.80842C20.7095 1.53984 20.6289 1.32199 20.4678 1.15488C20.3068 0.987765 20.089 0.901224 19.8145 0.895255H18.6064V6.1504C18.6183 6.36526 18.7167 6.52641 18.9017 6.63384C18.9852 6.68159 19.0777 6.70546 19.1791 6.70546H19.2955V6.79499H16.5749V6.70546H16.6912C16.8463 6.70546 16.9776 6.65175 17.085 6.54432C17.1983 6.43689 17.258 6.30857 17.264 6.15936V0.895255H15.5188C15.2742 0.895255 15.0594 0.940018 14.8745 1.02954C14.4986 1.20859 14.3107 1.48911 14.3107 1.87108C14.3107 2.09788 14.3822 2.33065 14.5254 2.56938L14.4359 2.61415Z" fill="#413A32"/>
<path d="M21.1218 2.61415C20.8294 2.33363 20.6833 2.03223 20.6833 1.70994C20.6833 1.45927 20.7638 1.24142 20.9249 1.0564C21.2292 0.698299 21.6558 0.519248 22.2047 0.519248H26.4198C26.6823 0.51328 26.912 0.492391 27.1089 0.456581C27.3058 0.414802 27.4311 0.381976 27.4848 0.358102V1.91585H27.3953V1.80842C27.3953 1.53984 27.3148 1.32199 27.1537 1.15488C26.9926 0.987765 26.7748 0.901224 26.5004 0.895255H25.2922V6.1504C25.3041 6.36526 25.4026 6.52641 25.5875 6.63384C25.6711 6.68159 25.7635 6.70546 25.865 6.70546H25.9813V6.79499H23.2607V6.70546H23.377C23.5322 6.70546 23.6634 6.65175 23.7708 6.54432C23.8842 6.43689 23.9438 6.30857 23.9498 6.15936V0.895255H22.2047C21.96 0.895255 21.7453 0.940018 21.5603 1.02954C21.1844 1.20859 20.9965 1.48911 20.9965 1.87108C20.9965 2.09788 21.0681 2.33065 21.2113 2.56938L21.1218 2.61415Z" fill="#413A32"/>
<path d="M28.0866 6.70546C28.2417 6.70546 28.373 6.65175 28.4804 6.54432C28.5937 6.43092 28.6534 6.29663 28.6593 6.14145V1.15488C28.6414 0.945987 28.543 0.790809 28.364 0.689347C28.2745 0.6416 28.182 0.617726 28.0866 0.617726H27.9702V0.528201H30.485C30.7475 0.528201 30.9772 0.507312 31.1741 0.465533C31.371 0.423754 31.4993 0.390928 31.559 0.367055V1.93375H31.4605V1.82632C31.4665 1.55774 31.3889 1.34288 31.2278 1.18174C31.0727 1.01462 30.8609 0.925097 30.5924 0.913161H30.0018V3.51835H31.4247C31.6455 3.51238 31.8274 3.43778 31.9706 3.29454C32.1138 3.14533 32.1854 2.9633 32.1854 2.74843V2.66786H32.266V4.7359H32.1854V4.66428C32.1854 4.44345 32.1138 4.26142 31.9706 4.11817C31.8274 3.97493 31.6484 3.90033 31.4337 3.89436H30.0018V6.41003H31.7469C32.1824 6.41003 32.5464 6.28469 32.8387 6.03402C33.137 5.78335 33.3578 5.42823 33.501 4.96867H33.5905L33.1698 6.79499H27.9702V6.70546H28.0866Z" fill="#413A32"/>
<path d="M43.2649 8.31692C42.7995 8.54969 42.3043 8.66607 41.7793 8.66607C41.3139 8.66607 40.8903 8.59445 40.5085 8.45121C39.6851 8.14682 38.9841 7.55297 38.4054 6.66965C38.2562 6.45479 37.9788 6.04297 37.5731 5.4342C37.1674 4.82543 36.9049 4.43748 36.7855 4.27037C36.5767 3.94211 36.4097 3.76306 36.2844 3.73321V3.64369C36.2903 3.64369 36.2963 3.64369 36.3023 3.64369C36.3142 3.64369 36.3261 3.64369 36.3381 3.64369C36.35 3.64369 36.3619 3.64369 36.3739 3.64369C36.3858 3.64369 36.4007 3.64369 36.4186 3.64369C36.4365 3.64369 36.4514 3.64369 36.4634 3.64369C36.7676 3.64369 37.0481 3.57505 37.3046 3.43778C37.6924 3.22292 37.8863 2.82602 37.8863 2.24709C37.8863 1.82334 37.767 1.49806 37.5283 1.27126C37.2897 1.0385 37.0033 0.922113 36.6692 0.922113H35.989V6.14145C35.989 6.29663 36.0457 6.43092 36.1591 6.54432C36.2724 6.65175 36.4067 6.70546 36.5618 6.70546H36.6781V6.79499H33.9575V6.70546H34.0739C34.223 6.70546 34.3543 6.65175 34.4676 6.54432C34.581 6.43689 34.6407 6.30558 34.6466 6.1504V1.18174C34.6407 1.02656 34.581 0.895255 34.4676 0.787825C34.3603 0.674426 34.229 0.617726 34.0739 0.617726H33.9575V0.528201H37.0272C37.7968 0.528201 38.3935 0.704268 38.8171 1.0564C39.1512 1.33095 39.3182 1.71889 39.3182 2.22023C39.3182 2.72158 39.1542 3.13041 38.826 3.44673C38.5038 3.75709 38.1339 3.91227 37.7163 3.91227C37.6805 3.91227 37.6417 3.90928 37.5999 3.90331C37.8446 4.03462 38.0474 4.18084 38.2085 4.34199C38.3756 4.50313 38.5187 4.65533 38.6381 4.79857C38.7634 4.94181 38.8678 5.07013 38.9513 5.18353C39.0408 5.29096 39.1571 5.43718 39.3003 5.6222C39.4435 5.80125 39.5927 5.98926 39.7478 6.18621C39.9029 6.38317 40.073 6.58609 40.2579 6.79499C40.4488 6.99791 40.6576 7.19188 40.8844 7.3769C41.1171 7.56192 41.3527 7.71412 41.5914 7.83348C42.0985 8.09012 42.6563 8.22143 43.2649 8.2274V8.31692Z" fill="#413A32"/>
<path d="M39.0642 0.00895297C39.1597 0.00298432 39.3118 0 39.5206 0C39.7235 0 39.992 0.0447629 40.3261 0.134289C40.6662 0.217846 40.9794 0.352134 41.2658 0.537153C41.5521 0.722173 41.8147 0.945987 42.0533 1.20859C42.4948 1.698 42.8409 2.28589 43.0914 2.97225C43.4494 1.95166 43.9148 1.1698 44.4876 0.626679C44.9231 0.214862 45.4034 0.00895297 45.9284 0.00895297C45.9523 0.00895297 45.9761 0.00895297 46 0.00895297V0.0984784C45.7017 0.104447 45.3914 0.262608 45.0693 0.572963C44.7531 0.87735 44.4756 1.24739 44.237 1.68308C43.9983 2.11877 43.7955 2.57237 43.6284 3.04387C43.4673 3.51537 43.3719 3.9242 43.342 4.27037V6.14145C43.342 6.29066 43.3957 6.42196 43.5031 6.53536C43.6165 6.64876 43.7537 6.70546 43.9148 6.70546H44.0311V6.79499H41.3105V6.70546H41.4269C41.582 6.70546 41.7132 6.65175 41.8206 6.54432C41.934 6.43092 41.9937 6.29663 41.9996 6.14145V4.26142C41.928 3.61683 41.7132 2.93345 41.3553 2.21128C40.9436 1.37571 40.4812 0.781857 39.9681 0.429723C39.6698 0.22083 39.3685 0.110415 39.0642 0.0984784V0.00895297Z" fill="#413A32"/>
<path d="M0.608559 16.5622C0.369909 16.9442 0.250583 17.3351 0.250583 17.735C0.250583 18.1707 0.408689 18.5676 0.724902 18.9257C0.897923 19.1286 1.11569 19.2868 1.37821 19.4002C1.64669 19.5136 1.93904 19.5703 2.25525 19.5703C2.57146 19.5703 2.85486 19.5106 3.10544 19.3912C3.60661 19.1465 3.85719 18.7466 3.85719 18.1916C3.85719 17.9827 3.7856 17.7619 3.64241 17.5291C3.50518 17.2963 3.29636 17.0874 3.01595 16.9024L1.49455 15.8818C0.90389 15.5118 0.608559 15.0343 0.608559 14.4494C0.608559 14.3897 0.611543 14.3301 0.617509 14.2704C0.653306 13.8108 0.835278 13.4378 1.16342 13.1513C1.49753 12.8588 1.94202 12.7126 2.49688 12.7126C2.83696 12.7126 3.24863 12.7425 3.7319 12.8021H4.28676L4.17042 14.1182H4.08988C4.08391 13.8078 3.96459 13.5601 3.7319 13.3751C3.49922 13.1841 3.19195 13.0886 2.81011 13.0886C2.34474 13.0886 2.00765 13.2289 1.79883 13.5094C1.6974 13.6526 1.64669 13.8078 1.64669 13.9749C1.64669 14.142 1.6974 14.2853 1.79883 14.4047C1.90026 14.5181 2.06135 14.6434 2.2821 14.7807L3.95564 15.8729C4.29571 16.0937 4.56121 16.3533 4.75213 16.6517C4.97885 17.0039 5.09221 17.365 5.09221 17.735C5.09221 17.9737 5.0415 18.2274 4.94007 18.496C4.84461 18.7586 4.68352 19.0033 4.4568 19.2301C4.23605 19.4569 3.94967 19.6419 3.59766 19.7851C3.24565 19.9284 2.85486 20 2.42529 20C2.00168 20 1.61686 19.9254 1.27082 19.7762C0.632425 19.5076 0.226718 19.0391 0.0536964 18.3706C0.0178988 18.2274 0 18.0782 0 17.923C0 17.4217 0.176005 16.9472 0.528015 16.4996L0.608559 16.5622Z" fill="#413A32"/>
<path d="M5.11948 14.9239C4.82713 14.6434 4.68096 14.342 4.68096 14.0197C4.68096 13.769 4.7615 13.5512 4.92259 13.3662C5.22687 13.0081 5.65346 12.829 6.20236 12.829H10.4175C10.68 12.823 10.9097 12.8022 11.1066 12.7663C11.3035 12.7246 11.4288 12.6917 11.4825 12.6679V14.2256H11.393V14.1182C11.393 13.8496 11.3125 13.6318 11.1514 13.4646C10.9903 13.2975 10.7725 13.211 10.4981 13.205H9.2899V18.4602C9.30183 18.675 9.40028 18.8362 9.58523 18.9436C9.66876 18.9913 9.76124 19.0152 9.86266 19.0152H9.979V19.1047H7.25839V19.0152H7.37473C7.52985 19.0152 7.66111 18.9615 7.7685 18.8541C7.88186 18.7466 7.94152 18.6183 7.94749 18.4691V13.205H6.20236C5.95774 13.205 5.74295 13.2498 5.558 13.3393C5.18212 13.5184 4.99419 13.7989 4.99419 14.1808C4.99419 14.4076 5.06578 14.6404 5.20897 14.8791L5.11948 14.9239Z" fill="#413A32"/>
<path d="M19.736 11.0206C19.8136 11.0206 19.8941 11.0236 19.9777 11.0295V11.1191C19.2736 11.1728 18.7665 11.507 18.4563 12.1218C18.2534 12.5216 18.152 13.0289 18.152 13.6437V16.8398C18.14 17.5918 17.8984 18.1796 17.4271 18.6034C16.9557 19.0212 16.2815 19.2301 15.4045 19.2301C14.5334 19.2301 13.8384 19.0152 13.3193 18.5855C12.8002 18.1498 12.5437 17.5709 12.5496 16.8487V13.3662C12.5496 13.2408 12.5019 13.1364 12.4065 13.0528C12.317 12.9693 12.2066 12.9275 12.0753 12.9275H11.9321V12.838H14.5096V12.9275H14.3664C14.1814 12.9275 14.0442 12.9991 13.9547 13.1423C13.9129 13.208 13.8921 13.2796 13.8921 13.3572V16.7771C13.8921 17.4097 14.0561 17.9111 14.3843 18.2811C14.7124 18.6511 15.145 18.8362 15.6819 18.8362C15.6879 18.8362 15.6909 18.8362 15.6909 18.8362C15.6909 18.8362 15.6939 18.8362 15.6998 18.8362C16.2308 18.8362 16.6664 18.6631 17.0065 18.3169C17.3465 17.9708 17.5166 17.4963 17.5166 16.8935V13.6437C17.5166 12.838 17.7284 12.1993 18.152 11.7278C18.5815 11.2563 19.1096 11.0206 19.736 11.0206Z" fill="#413A32"/>
<path d="M20.8209 12.829C20.9223 12.829 21.1072 12.829 21.3757 12.829C21.6442 12.829 22.1424 12.832 22.8703 12.838C23.9263 12.8499 24.7616 13.1364 25.3761 13.6974C25.9906 14.2525 26.2979 15.0134 26.2979 15.9803C26.2979 16.9412 25.9906 17.7022 25.3761 18.2632C24.7616 18.8242 23.9263 19.1047 22.8703 19.1047H19.6216V19.0152H19.738C19.8871 19.0152 20.0154 18.9645 20.1228 18.863C20.2362 18.7556 20.2988 18.6273 20.3107 18.4781V13.2408C19.6425 13.2886 19.1473 13.4437 18.8251 13.7064C18.664 13.8317 18.5388 13.96 18.4493 14.0913C18.3538 14.2226 18.2613 14.3808 18.1718 14.5658L18.0823 14.53C18.2255 13.9332 18.5238 13.5034 18.9773 13.2408C19.4367 12.9722 20.0512 12.835 20.8209 12.829ZM22.7629 18.7287C23.4013 18.7287 23.9054 18.4811 24.2753 17.9857C24.6512 17.4903 24.8391 16.8189 24.8391 15.9714C24.8391 15.1238 24.6512 14.4554 24.2753 13.966C23.9054 13.4766 23.4072 13.2319 22.7808 13.2319C22.7748 13.2319 22.7688 13.2319 22.7629 13.2319H21.6531V18.7287H22.7629Z" fill="#413A32"/>
<path d="M30.301 19.0152H30.4173V19.1047H27.6967V19.0152H27.8131C27.9682 19.0152 28.0994 18.9615 28.2068 18.8541C28.3202 18.7407 28.3799 18.6064 28.3858 18.4512V13.205L27.5356 13.2408C26.9748 13.2647 26.6944 13.4736 26.6944 13.8675C26.6944 14.0286 26.7481 14.1659 26.8555 14.2793C26.9688 14.3868 27.124 14.4405 27.3209 14.4405C27.3387 14.4405 27.3566 14.4405 27.3745 14.4405V14.4942C27.2552 14.536 27.1538 14.5568 27.0703 14.5568C26.8018 14.5568 26.5959 14.4614 26.4528 14.2704C26.3513 14.1391 26.3006 13.9899 26.3006 13.8227C26.3006 13.5601 26.405 13.3453 26.6138 13.1782C26.8167 13.0051 27.1329 12.9036 27.5625 12.8738C27.64 12.8678 27.8906 12.8559 28.3142 12.838C29.2808 12.8021 29.9818 12.7425 30.4173 12.6589L30.4352 12.7484C30.1787 12.7902 29.9967 12.8768 29.8893 13.0081C29.7879 13.1394 29.7342 13.3333 29.7282 13.59V18.4512C29.7342 18.6064 29.7909 18.7407 29.8983 18.8541C30.0116 18.9615 30.1459 19.0152 30.301 19.0152Z" fill="#413A32"/>
<path d="M33.5633 15.103C33.4559 14.8762 33.4022 14.6613 33.4022 14.4584C33.4022 14.2495 33.429 14.0585 33.4827 13.8854C33.5364 13.7064 33.6259 13.5333 33.7512 13.3662C33.8765 13.1931 34.0525 13.0498 34.2792 12.9364C34.5895 12.7753 34.9624 12.6947 35.3979 12.6947C35.9707 12.6947 36.5136 12.8409 37.0267 13.1334C37.7009 13.5154 38.1692 14.0436 38.4317 14.718C38.5809 15.088 38.6555 15.4849 38.6555 15.9087C38.6555 16.9054 38.2945 17.7081 37.5726 18.3169C36.8566 18.9257 35.9199 19.2301 34.7625 19.2301C33.611 19.2301 32.6713 18.9257 31.9434 18.3169C31.2215 17.7081 30.8605 16.9084 30.8605 15.9176C30.8605 15.1776 31.0694 14.536 31.487 13.9928C31.9106 13.4437 32.4804 13.0707 33.1963 12.8738L33.25 12.9543C32.9458 13.211 32.7161 13.587 32.5609 14.0824C32.4058 14.5777 32.3283 15.1119 32.3283 15.6849C32.3283 16.6517 32.552 17.4217 32.9995 17.9946C33.4469 18.5676 34.0316 18.8541 34.7535 18.8541C35.4814 18.8541 36.0661 18.5855 36.5076 18.0483C36.9551 17.5052 37.1788 16.789 37.1788 15.8997C37.1788 15.3626 37.0953 14.8791 36.9282 14.4494C36.7672 14.0137 36.5315 13.6795 36.2212 13.4467C35.911 13.208 35.5649 13.0886 35.1831 13.0886C34.7595 13.0886 34.4164 13.199 34.1539 13.4199C33.784 13.7362 33.5991 14.1391 33.5991 14.6285C33.5991 14.7836 33.6199 14.9418 33.6617 15.103H33.5633Z" fill="#413A32"/>
</svg>
