<svg width="29" height="28" viewBox="0 0 29 28" fill="none" xmlns="http://www.w3.org/2000/svg">
<g opacity="0.66">
<path d="M23.3962 24.0001C24.0057 24.0001 24.5 23.5059 24.5 22.8962V5.10383C24.5 4.49414 24.0057 4 23.3962 4H5.60383C4.99406 4 4.5 4.49414 4.5 5.10383V22.8962C4.5 23.5059 4.99406 24.0001 5.60383 24.0001H23.3962Z" fill="#0666FB"/>
<path d="M18.2995 24V16.2549H20.8993L21.2885 13.2366H18.2995V11.3094C18.2995 10.4355 18.5423 9.83993 19.7955 9.83993L21.3938 9.83922V7.13961C21.1173 7.10282 20.1685 7.02063 19.0648 7.02063C16.7602 7.02063 15.1826 8.42727 15.1826 11.0106V13.2366H12.5762V16.2549H15.1826V24H18.2995Z" fill="#EDEBEA"/>
</g>
</svg>
