<svg width="20" height="20" viewBox="0 0 20 20" fill="none" xmlns="http://www.w3.org/2000/svg">
<path d="M9.99982 4C12.0206 4 13.7446 5.01194 15.032 6.11978C16.3275 7.23271 17.263 8.51192 17.722 9.20355C17.9031 9.4751 17.9998 9.79421 17.9998 10.1206C17.9998 10.447 17.9031 10.7662 17.722 11.0377C17.263 11.7293 16.3275 13.0085 15.032 14.1215C13.7436 15.2293 12.0206 16.2413 9.99982 16.2413C7.97899 16.2413 6.25501 15.2293 4.96764 14.1215C3.67211 13.0075 2.73667 11.7283 2.27763 11.0367C2.09649 10.7651 1.99982 10.446 1.99982 10.1196C1.99982 9.79319 2.09649 9.47408 2.27763 9.20253C2.73667 8.51192 3.67211 7.23271 4.96764 6.11978C6.25603 5.01194 7.97899 4 9.99982 4ZM3.55174 10.0513C3.5377 10.0717 3.53019 10.0959 3.53019 10.1206C3.53019 10.1454 3.5377 10.1696 3.55174 10.19C3.971 10.8245 4.81769 11.9752 5.9653 12.9616C7.11904 13.9542 8.4972 14.7111 9.99982 14.7111C11.5024 14.7111 12.8816 13.9542 14.0343 12.9616C15.1809 11.9752 16.0276 10.8235 16.4479 10.19C16.4619 10.1696 16.4694 10.1454 16.4694 10.1206C16.4694 10.0959 16.4619 10.0717 16.4479 10.0513C16.0276 9.41777 15.1809 8.26608 14.0343 7.27963C12.8806 6.28707 11.5024 5.53016 9.99982 5.53016C8.4972 5.53016 7.11802 6.28707 5.9653 7.27963C4.81871 8.26608 3.97202 9.41777 3.55174 10.0513ZM9.99982 12.1608C9.72812 12.167 9.45794 12.1188 9.20513 12.0191C8.95232 11.9194 8.72198 11.7701 8.52763 11.5802C8.33328 11.3902 8.17884 11.1634 8.07338 10.9129C7.96791 10.6624 7.91355 10.3934 7.91348 10.1217C7.91342 9.84989 7.96764 9.58086 8.07298 9.33034C8.17832 9.07982 8.33265 8.85287 8.5269 8.66282C8.72115 8.47277 8.95142 8.32344 9.20418 8.2236C9.45694 8.12376 9.7271 8.07543 9.9988 8.08144C10.5319 8.09322 11.0391 8.31323 11.412 8.69436C11.7849 9.07548 11.9938 9.58744 11.9939 10.1206C11.994 10.6538 11.7854 11.1659 11.4127 11.5472C11.04 11.9285 10.5329 12.1488 9.99982 12.1608Z" fill="black"/>
</svg>
