<svg width="29" height="28" viewBox="0 0 29 28" fill="none" xmlns="http://www.w3.org/2000/svg">
<path d="M24.3055 12.0415H23.5V12H14.5V16H20.1515C19.327 18.3285 17.1115 20 14.5 20C11.1865 20 8.5 17.3135 8.5 14C8.5 10.6865 11.1865 8 14.5 8C16.0295 8 17.421 8.577 18.4805 9.5195L21.309 6.691C19.523 5.0265 17.134 4 14.5 4C8.9775 4 4.5 8.4775 4.5 14C4.5 19.5225 8.9775 24 14.5 24C20.0225 24 24.5 19.5225 24.5 14C24.5 13.3295 24.431 12.675 24.3055 12.0415Z" fill="#FFC107"/>
<path d="M5.65295 9.3455L8.93845 11.755C9.82745 9.554 11.9805 8 14.5 8C16.0295 8 17.421 8.577 18.4805 9.5195L21.309 6.691C19.523 5.0265 17.134 4 14.5 4C10.659 4 7.32795 6.1685 5.65295 9.3455Z" fill="#FF3D00"/>
<path d="M14.5 24C17.083 24 19.43 23.0115 21.2045 21.404L18.1095 18.785C17.0718 19.5742 15.8038 20.001 14.5 20C11.899 20 9.69053 18.3415 8.85853 16.027L5.59753 18.5395C7.25253 21.778 10.6135 24 14.5 24Z" fill="#069425"/>
<path d="M24.3055 12.0414H23.5V11.9999H14.5V15.9999H20.1515C19.7571 17.1081 19.0467 18.0765 18.108 18.7854L18.1095 18.7844L21.2045 21.4034C20.9855 21.6024 24.5 18.9999 24.5 13.9999C24.5 13.3294 24.431 12.6749 24.3055 12.0414Z" fill="#1976D2"/>
</svg>
